<svg xmlns="http://www.w3.org/2000/svg" version="1.1" xmlns:xlink="http://www.w3.org/1999/xlink" xmlns:svgjs="http://svgjs.dev/svgjs" width="1920" height="1280" preserveAspectRatio="none" viewBox="0 0 1920 1280"><g mask="url(&quot;#SvgjsMask1016&quot;)" fill="none"><path d="M1605.59-39.43C1354.99 113.25 1390.39 939.45 1035.59 986.69 680.8 1033.93 750.59 826.69 465.6 826.69 180.6 826.69 43.6 985.18-104.4 986.69" stroke="rgba(51,121,194,0.58)" stroke-width="2"></path><path d="M724.08-220.62C546.06-13.56 677.27 796.3 382.33 816.81 87.38 837.32-97.79 388.18-301.18 368.81" stroke="rgba(51,121,194,0.58)" stroke-width="2"></path><path d="M1574.62-144.74C1210.81-1.66 1159.32 1085.69 640.5 1109.35 121.68 1133.01-44.68 769.23-293.62 763.75" stroke="rgba(51,121,194,0.58)" stroke-width="2"></path><path d="M1178.19-69.67C923.47 54.27 892.83 871.71 560.96 880.53 229.09 889.35 134.74 444.2-56.27 419.73" stroke="rgba(51,121,194,0.58)" stroke-width="2"></path><path d="M850.09-13.38C628.14 61.72 572.91 706.27 257.74 712.94-57.43 719.61-169.43 426.51-334.61 418.54" stroke="rgba(51,121,194,0.58)" stroke-width="2"></path></g><defs><mask id="SvgjsMask1016"><rect width="1920" height="1280" fill="#ffffff"></rect></mask></defs></svg>