<svg xmlns="http://www.w3.org/2000/svg" version="1.1" xmlns:xlink="http://www.w3.org/1999/xlink" xmlns:svgjs="http://svgjs.dev/svgjs" width="1920" height="1280" preserveAspectRatio="none" viewBox="0 0 1920 1280"><g mask="url(&quot;#SvgjsMask1000&quot;)" fill="none"><path d="M1423.63-85.81C1243.77-60.81 1145.24 356.95 849.46 359.07 553.68 361.19 562.37 199.07 275.28 199.07-11.8 199.07-149.89 357.58-298.89 359.07" stroke="rgba(51,121,194,0.58)" stroke-width="2"></path><path d="M1209.25-224.78C987.32-208.19 886.48 196.18 443.29 228.82 0.11 261.46-101.4 660.77-322.66 676.82" stroke="rgba(51,121,194,0.58)" stroke-width="2"></path><path d="M1507.86-20.66C1233.82 53.17 1206.72 757.09 735.7 811.52 264.69 865.95 167.92 1076.51-36.45 1080.32" stroke="rgba(51,121,194,0.58)" stroke-width="2"></path><path d="M1391.72-67.03C1155.75-30.77 1106.69 478.56 650.32 534.85 193.94 591.14 129.59 1000.19-91.09 1021.25" stroke="rgba(51,121,194,0.58)" stroke-width="2"></path><path d="M1841.29-191.6C1618.87-127.15 1560.37 488.73 1224.97 499.89 889.57 511.05 916.81 339.89 608.65 339.89 300.49 339.89 151.51 498.59-7.67 499.89" stroke="rgba(51,121,194,0.58)" stroke-width="2"></path></g><defs><mask id="SvgjsMask1000"><rect width="1920" height="1280" fill="#ffffff"></rect></mask></defs></svg>