<svg xmlns="http://www.w3.org/2000/svg" version="1.1" xmlns:xlink="http://www.w3.org/1999/xlink" xmlns:svgjs="http://svgjs.dev/svgjs" width="1440" height="560" preserveAspectRatio="none" viewBox="0 0 1440 560"><g clip-path="url(&quot;#SvgjsClipPath1000&quot;)" fill="none"><circle r="93.335" cx="80.22" cy="-27.22" stroke="#365aa3" stroke-opacity="0.25" stroke-width="2"></circle><circle r="93.335" cx="421.56" cy="423" stroke="#365aa3" stroke-opacity="0.25" stroke-width="2"></circle><circle r="93.335" cx="723.77" cy="690.52" stroke="#365aa3" stroke-opacity="0.25" stroke-width="2"></circle><circle r="104.435" cx="174.33" cy="281.03" stroke="#365aa3" stroke-opacity="0.25" stroke-width="2"></circle><circle r="70.295" cx="632.18" cy="545" stroke="#365aa3" stroke-opacity="0.25" stroke-width="2"></circle><circle r="71.785" cx="1162.23" cy="329.13" stroke="#365aa3" stroke-opacity="0.25" stroke-width="2"></circle><circle r="62.405" cx="1351.63" cy="62.73" stroke="#365aa3" stroke-opacity="0.25" stroke-width="2"></circle><circle r="86.29" cx="907.72" cy="150.68" stroke="#365aa3" stroke-opacity="0.25" stroke-width="2"></circle><circle r="69.86" cx="926.36" cy="6.3" stroke="#365aa3" stroke-opacity="0.25" stroke-width="2"></circle><circle r="124.66" cx="1260.4" cy="227.15" stroke="#365aa3" stroke-opacity="0.25" stroke-width="2"></circle><circle r="170.595" cx="326.51" cy="99.27" stroke="#365aa3" stroke-opacity="0.25" stroke-width="2"></circle><circle r="132.325" cx="1274.93" cy="110.33" stroke="#365aa3" stroke-opacity="0.25" stroke-width="2"></circle><circle r="152.785" cx="612.71" cy="148.64" stroke="#365aa3" stroke-opacity="0.25" stroke-width="2"></circle><circle r="174.385" cx="1078.7" cy="338.31" stroke="#365aa3" stroke-opacity="0.25" stroke-width="2"></circle><circle r="110.47" cx="851.4" cy="98.68" stroke="#365aa3" stroke-opacity="0.25" stroke-width="2"></circle><circle r="84.47" cx="483.63" cy="466.34" stroke="#365aa3" stroke-opacity="0.25" stroke-width="2"></circle><circle r="121.335" cx="824.34" cy="421.47" stroke="#365aa3" stroke-opacity="0.25" stroke-width="2"></circle><circle r="176.73" cx="10.97" cy="392.13" stroke="#365aa3" stroke-opacity="0.25" stroke-width="2"></circle><circle r="177.44" cx="1085.19" cy="491.51" stroke="#365aa3" stroke-opacity="0.25" stroke-width="2"></circle><circle r="96.725" cx="842.75" cy="127.57" stroke="#365aa3" stroke-opacity="0.25" stroke-width="2"></circle><circle r="83.575" cx="216.94" cy="39.83" stroke="#365aa3" stroke-opacity="0.25" stroke-width="2"></circle><circle r="97.82" cx="104.41" cy="477.28" stroke="#365aa3" stroke-opacity="0.25" stroke-width="2"></circle><circle r="147.315" cx="115.95" cy="230.51" stroke="#365aa3" stroke-opacity="0.25" stroke-width="2"></circle><circle r="176.45" cx="1206.59" cy="377.17" stroke="#365aa3" stroke-opacity="0.25" stroke-width="2"></circle><circle r="94.065" cx="1274.84" cy="105.59" stroke="#365aa3" stroke-opacity="0.25" stroke-width="2"></circle><circle r="54.845" cx="496.81" cy="197.37" stroke="#365aa3" stroke-opacity="0.25" stroke-width="2"></circle><circle r="59.13" cx="1348.3" cy="148.07" stroke="#365aa3" stroke-opacity="0.25" stroke-width="2"></circle><circle r="92.35" cx="620.66" cy="335.9" stroke="#365aa3" stroke-opacity="0.25" stroke-width="2"></circle><circle r="47.59" cx="1323.26" cy="112.34" stroke="#365aa3" stroke-opacity="0.25" stroke-width="2"></circle><circle r="135.845" cx="418.47" cy="2.34" stroke="#365aa3" stroke-opacity="0.25" stroke-width="2"></circle><circle r="75.41" cx="1265.72" cy="248.97" stroke="#365aa3" stroke-opacity="0.25" stroke-width="2"></circle><circle r="138.7" cx="728.79" cy="282.35" stroke="#365aa3" stroke-opacity="0.25" stroke-width="2"></circle><circle r="146" cx="237.02" cy="316.23" stroke="#365aa3" stroke-opacity="0.25" stroke-width="2"></circle><circle r="64.655" cx="323.81" cy="129.5" stroke="#365aa3" stroke-opacity="0.25" stroke-width="2"></circle><circle r="151.405" cx="1158.71" cy="515.36" stroke="#365aa3" stroke-opacity="0.25" stroke-width="2"></circle><circle r="132.125" cx="1403.39" cy="162.46" stroke="#365aa3" stroke-opacity="0.25" stroke-width="2"></circle><circle r="170.19" cx="433.92" cy="68.07" stroke="#365aa3" stroke-opacity="0.25" stroke-width="2"></circle><circle r="61.79" cx="1029.91" cy="475.81" stroke="#365aa3" stroke-opacity="0.25" stroke-width="2"></circle><circle r="170.46" cx="569.16" cy="221.96" stroke="#365aa3" stroke-opacity="0.25" stroke-width="2"></circle><circle r="168.505" cx="939" cy="456.89" stroke="#365aa3" stroke-opacity="0.25" stroke-width="2"></circle></g><defs><clipPath id="SvgjsClipPath1000"><rect width="1440" height="560" x="0" y="0"></rect></clipPath></defs></svg>