<svg xmlns="http://www.w3.org/2000/svg" version="1.1" xmlns:xlink="http://www.w3.org/1999/xlink" xmlns:svgjs="http://svgjs.dev/svgjs" width="1440" height="560" preserveAspectRatio="none" viewBox="0 0 1440 560"><g mask="url(&quot;#SvgjsMask1006&quot;)" fill="none"><path d="M-80.4 342.56L-80.4 342.56" stroke="rgba(19, 46, 101, 0.5)" stroke-width="1.5"></path><path d="M-80.4 342.56L60.08 399.68" stroke="rgba(19, 46, 101, 0.5)" stroke-width="1.5"></path><path d="M-80.4 342.56L-57.61 512.69" stroke="rgba(19, 46, 101, 0.5)" stroke-width="1.5"></path><path d="M-80.4 342.56L73.27 513.84" stroke="rgba(19, 46, 101, 0.5)" stroke-width="1.5"></path><path d="M-80.4 342.56L-92.75 647.98" stroke="rgba(19, 46, 101, 0.5)" stroke-width="1.5"></path><path d="M-80.4 342.56L236.4 392.13" stroke="rgba(19, 46, 101, 0.5)" stroke-width="1.5"></path><path d="M-80.4 342.56L51.57 643.56" stroke="rgba(19, 46, 101, 0.5)" stroke-width="1.5"></path><path d="M-57.61 512.69L-57.61 512.69" stroke="rgba(19, 46, 101, 0.5)" stroke-width="1.5"></path><path d="M-57.61 512.69L73.27 513.84" stroke="rgba(19, 46, 101, 0.5)" stroke-width="1.5"></path><path d="M-57.61 512.69L-92.75 647.98" stroke="rgba(19, 46, 101, 0.5)" stroke-width="1.5"></path><path d="M-57.61 512.69L60.08 399.68" stroke="rgba(19, 46, 101, 0.5)" stroke-width="1.5"></path><path d="M-57.61 512.69L51.57 643.56" stroke="rgba(19, 46, 101, 0.5)" stroke-width="1.5"></path><path d="M-92.75 647.98L-92.75 647.98" stroke="rgba(19, 46, 101, 0.5)" stroke-width="1.5"></path><path d="M-92.75 647.98L51.57 643.56" stroke="rgba(19, 46, 101, 0.5)" stroke-width="1.5"></path><path d="M-92.75 647.98L73.27 513.84" stroke="rgba(19, 46, 101, 0.5)" stroke-width="1.5"></path><path d="M-92.75 647.98L60.08 399.68" stroke="rgba(19, 46, 101, 0.5)" stroke-width="1.5"></path><path d="M60.08 399.68L60.08 399.68" stroke="rgba(19, 46, 101, 0.5)" stroke-width="1.5"></path><path d="M60.08 399.68L73.27 513.84" stroke="rgba(19, 46, 101, 0.5)" stroke-width="1.5"></path><path d="M60.08 399.68L236.4 392.13" stroke="rgba(19, 46, 101, 0.5)" stroke-width="1.5"></path><path d="M60.08 399.68L235.92 512.32" stroke="rgba(19, 46, 101, 0.5)" stroke-width="1.5"></path><path d="M60.08 399.68L51.57 643.56" stroke="rgba(19, 46, 101, 0.5)" stroke-width="1.5"></path><path d="M73.27 513.84L73.27 513.84" stroke="rgba(19, 46, 101, 0.5)" stroke-width="1.5"></path><path d="M51.57 643.56L51.57 643.56" stroke="rgba(19, 46, 101, 0.5)" stroke-width="1.5"></path><path d="M51.57 643.56L73.27 513.84" stroke="rgba(19, 46, 101, 0.5)" stroke-width="1.5"></path><path d="M236.4 392.13L236.4 392.13" stroke="rgba(19, 46, 101, 0.5)" stroke-width="1.5"></path><path d="M236.4 392.13L235.92 512.32" stroke="rgba(19, 46, 101, 0.5)" stroke-width="1.5"></path><path d="M236.4 392.13L363.64 411.87" stroke="rgba(19, 46, 101, 0.5)" stroke-width="1.5"></path><path d="M236.4 392.13L351.14 495.62" stroke="rgba(19, 46, 101, 0.5)" stroke-width="1.5"></path><path d="M236.4 392.13L73.27 513.84" stroke="rgba(19, 46, 101, 0.5)" stroke-width="1.5"></path><path d="M235.92 512.32L235.92 512.32" stroke="rgba(19, 46, 101, 0.5)" stroke-width="1.5"></path><path d="M235.92 512.32L351.14 495.62" stroke="rgba(19, 46, 101, 0.5)" stroke-width="1.5"></path><path d="M235.92 512.32L242.33 669.04" stroke="rgba(19, 46, 101, 0.5)" stroke-width="1.5"></path><path d="M242.33 669.04L242.33 669.04" stroke="rgba(19, 46, 101, 0.5)" stroke-width="1.5"></path><path d="M242.33 669.04L412.32 688.45" stroke="rgba(19, 46, 101, 0.5)" stroke-width="1.5"></path><path d="M242.33 669.04L51.57 643.56" stroke="rgba(19, 46, 101, 0.5)" stroke-width="1.5"></path><path d="M242.33 669.04L351.14 495.62" stroke="rgba(19, 46, 101, 0.5)" stroke-width="1.5"></path><path d="M242.33 669.04L73.27 513.84" stroke="rgba(19, 46, 101, 0.5)" stroke-width="1.5"></path><path d="M242.33 669.04L501.82 708.99" stroke="rgba(19, 46, 101, 0.5)" stroke-width="1.5"></path><path d="M363.64 411.87L363.64 411.87" stroke="rgba(19, 46, 101, 0.5)" stroke-width="1.5"></path><path d="M363.64 411.87L351.14 495.62" stroke="rgba(19, 46, 101, 0.5)" stroke-width="1.5"></path><path d="M363.64 411.87L492.18 340.1" stroke="rgba(19, 46, 101, 0.5)" stroke-width="1.5"></path><path d="M363.64 411.87L235.92 512.32" stroke="rgba(19, 46, 101, 0.5)" stroke-width="1.5"></path><path d="M351.14 495.62L351.14 495.62" stroke="rgba(19, 46, 101, 0.5)" stroke-width="1.5"></path><path d="M351.14 495.62L412.32 688.45" stroke="rgba(19, 46, 101, 0.5)" stroke-width="1.5"></path><path d="M412.32 688.45L412.32 688.45" stroke="rgba(19, 46, 101, 0.5)" stroke-width="1.5"></path><path d="M412.32 688.45L501.82 708.99" stroke="rgba(19, 46, 101, 0.5)" stroke-width="1.5"></path><path d="M412.32 688.45L235.92 512.32" stroke="rgba(19, 46, 101, 0.5)" stroke-width="1.5"></path><path d="M412.32 688.45L650.74 550.57" stroke="rgba(19, 46, 101, 0.5)" stroke-width="1.5"></path><path d="M492.18 340.1L492.18 340.1" stroke="rgba(19, 46, 101, 0.5)" stroke-width="1.5"></path><path d="M492.18 340.1L653.77 342.96" stroke="rgba(19, 46, 101, 0.5)" stroke-width="1.5"></path><path d="M492.18 340.1L351.14 495.62" stroke="rgba(19, 46, 101, 0.5)" stroke-width="1.5"></path><path d="M492.18 340.1L685.25 236.44" stroke="rgba(19, 46, 101, 0.5)" stroke-width="1.5"></path><path d="M492.18 340.1L236.4 392.13" stroke="rgba(19, 46, 101, 0.5)" stroke-width="1.5"></path><path d="M501.82 708.99L501.82 708.99" stroke="rgba(19, 46, 101, 0.5)" stroke-width="1.5"></path><path d="M501.82 708.99L699.87 704.58" stroke="rgba(19, 46, 101, 0.5)" stroke-width="1.5"></path><path d="M685.25 236.44L685.25 236.44" stroke="rgba(19, 46, 101, 0.5)" stroke-width="1.5"></path><path d="M685.25 236.44L653.77 342.96" stroke="rgba(19, 46, 101, 0.5)" stroke-width="1.5"></path><path d="M685.25 236.44L797.29 234.32" stroke="rgba(19, 46, 101, 0.5)" stroke-width="1.5"></path><path d="M685.25 236.44L860.51 362.04" stroke="rgba(19, 46, 101, 0.5)" stroke-width="1.5"></path><path d="M653.77 342.96L653.77 342.96" stroke="rgba(19, 46, 101, 0.5)" stroke-width="1.5"></path><path d="M653.77 342.96L797.29 234.32" stroke="rgba(19, 46, 101, 0.5)" stroke-width="1.5"></path><path d="M653.77 342.96L860.51 362.04" stroke="rgba(19, 46, 101, 0.5)" stroke-width="1.5"></path><path d="M650.74 550.57L650.74 550.57" stroke="rgba(19, 46, 101, 0.5)" stroke-width="1.5"></path><path d="M650.74 550.57L699.87 704.58" stroke="rgba(19, 46, 101, 0.5)" stroke-width="1.5"></path><path d="M650.74 550.57L804.8 498.77" stroke="rgba(19, 46, 101, 0.5)" stroke-width="1.5"></path><path d="M650.74 550.57L653.77 342.96" stroke="rgba(19, 46, 101, 0.5)" stroke-width="1.5"></path><path d="M650.74 550.57L501.82 708.99" stroke="rgba(19, 46, 101, 0.5)" stroke-width="1.5"></path><path d="M699.87 704.58L699.87 704.58" stroke="rgba(19, 46, 101, 0.5)" stroke-width="1.5"></path><path d="M699.87 704.58L804.8 498.77" stroke="rgba(19, 46, 101, 0.5)" stroke-width="1.5"></path><path d="M699.87 704.58L974.35 688.07" stroke="rgba(19, 46, 101, 0.5)" stroke-width="1.5"></path><path d="M699.87 704.58L412.32 688.45" stroke="rgba(19, 46, 101, 0.5)" stroke-width="1.5"></path><path d="M699.87 704.58L1000.84 545.78" stroke="rgba(19, 46, 101, 0.5)" stroke-width="1.5"></path><path d="M797.29 234.32L797.29 234.32" stroke="rgba(19, 46, 101, 0.5)" stroke-width="1.5"></path><path d="M797.29 234.32L860.51 362.04" stroke="rgba(19, 46, 101, 0.5)" stroke-width="1.5"></path><path d="M860.51 362.04L860.51 362.04" stroke="rgba(19, 46, 101, 0.5)" stroke-width="1.5"></path><path d="M860.51 362.04L964.68 385.42" stroke="rgba(19, 46, 101, 0.5)" stroke-width="1.5"></path><path d="M860.51 362.04L804.8 498.77" stroke="rgba(19, 46, 101, 0.5)" stroke-width="1.5"></path><path d="M860.51 362.04L945.41 235.35" stroke="rgba(19, 46, 101, 0.5)" stroke-width="1.5"></path><path d="M804.8 498.77L804.8 498.77" stroke="rgba(19, 46, 101, 0.5)" stroke-width="1.5"></path><path d="M804.8 498.77L964.68 385.42" stroke="rgba(19, 46, 101, 0.5)" stroke-width="1.5"></path><path d="M1007.51 -48.89L1007.51 -48.89" stroke="rgba(19, 46, 101, 0.5)" stroke-width="1.5"></path><path d="M1007.51 -48.89L990.93 43.76" stroke="rgba(19, 46, 101, 0.5)" stroke-width="1.5"></path><path d="M1007.51 -48.89L1117.64 -83.08" stroke="rgba(19, 46, 101, 0.5)" stroke-width="1.5"></path><path d="M1007.51 -48.89L1160.01 52.7" stroke="rgba(19, 46, 101, 0.5)" stroke-width="1.5"></path><path d="M1007.51 -48.89L1090.96 200.54" stroke="rgba(19, 46, 101, 0.5)" stroke-width="1.5"></path><path d="M990.93 43.76L990.93 43.76" stroke="rgba(19, 46, 101, 0.5)" stroke-width="1.5"></path><path d="M990.93 43.76L1160.01 52.7" stroke="rgba(19, 46, 101, 0.5)" stroke-width="1.5"></path><path d="M945.41 235.35L945.41 235.35" stroke="rgba(19, 46, 101, 0.5)" stroke-width="1.5"></path><path d="M945.41 235.35L797.29 234.32" stroke="rgba(19, 46, 101, 0.5)" stroke-width="1.5"></path><path d="M945.41 235.35L1090.96 200.54" stroke="rgba(19, 46, 101, 0.5)" stroke-width="1.5"></path><path d="M945.41 235.35L964.68 385.42" stroke="rgba(19, 46, 101, 0.5)" stroke-width="1.5"></path><path d="M945.41 235.35L1091.8 341.42" stroke="rgba(19, 46, 101, 0.5)" stroke-width="1.5"></path><path d="M945.41 235.35L990.93 43.76" stroke="rgba(19, 46, 101, 0.5)" stroke-width="1.5"></path><path d="M964.68 385.42L964.68 385.42" stroke="rgba(19, 46, 101, 0.5)" stroke-width="1.5"></path><path d="M964.68 385.42L1091.8 341.42" stroke="rgba(19, 46, 101, 0.5)" stroke-width="1.5"></path><path d="M964.68 385.42L1000.84 545.78" stroke="rgba(19, 46, 101, 0.5)" stroke-width="1.5"></path><path d="M1000.84 545.78L1000.84 545.78" stroke="rgba(19, 46, 101, 0.5)" stroke-width="1.5"></path><path d="M1000.84 545.78L974.35 688.07" stroke="rgba(19, 46, 101, 0.5)" stroke-width="1.5"></path><path d="M1000.84 545.78L1142.04 507.6" stroke="rgba(19, 46, 101, 0.5)" stroke-width="1.5"></path><path d="M1000.84 545.78L804.8 498.77" stroke="rgba(19, 46, 101, 0.5)" stroke-width="1.5"></path><path d="M1000.84 545.78L1091.8 341.42" stroke="rgba(19, 46, 101, 0.5)" stroke-width="1.5"></path><path d="M974.35 688.07L974.35 688.07" stroke="rgba(19, 46, 101, 0.5)" stroke-width="1.5"></path><path d="M974.35 688.07L1142.04 507.6" stroke="rgba(19, 46, 101, 0.5)" stroke-width="1.5"></path><path d="M974.35 688.07L804.8 498.77" stroke="rgba(19, 46, 101, 0.5)" stroke-width="1.5"></path><path d="M974.35 688.07L964.68 385.42" stroke="rgba(19, 46, 101, 0.5)" stroke-width="1.5"></path><path d="M1117.64 -83.08L1117.64 -83.08" stroke="rgba(19, 46, 101, 0.5)" stroke-width="1.5"></path><path d="M1117.64 -83.08L1160.01 52.7" stroke="rgba(19, 46, 101, 0.5)" stroke-width="1.5"></path><path d="M1117.64 -83.08L990.93 43.76" stroke="rgba(19, 46, 101, 0.5)" stroke-width="1.5"></path><path d="M1117.64 -83.08L1296.87 61.73" stroke="rgba(19, 46, 101, 0.5)" stroke-width="1.5"></path><path d="M1117.64 -83.08L1390.56 -46.48" stroke="rgba(19, 46, 101, 0.5)" stroke-width="1.5"></path><path d="M1117.64 -83.08L1090.96 200.54" stroke="rgba(19, 46, 101, 0.5)" stroke-width="1.5"></path><path d="M1160.01 52.7L1160.01 52.7" stroke="rgba(19, 46, 101, 0.5)" stroke-width="1.5"></path><path d="M1160.01 52.7L1296.87 61.73" stroke="rgba(19, 46, 101, 0.5)" stroke-width="1.5"></path><path d="M1160.01 52.7L1090.96 200.54" stroke="rgba(19, 46, 101, 0.5)" stroke-width="1.5"></path><path d="M1090.96 200.54L1090.96 200.54" stroke="rgba(19, 46, 101, 0.5)" stroke-width="1.5"></path><path d="M1090.96 200.54L1091.8 341.42" stroke="rgba(19, 46, 101, 0.5)" stroke-width="1.5"></path><path d="M1090.96 200.54L990.93 43.76" stroke="rgba(19, 46, 101, 0.5)" stroke-width="1.5"></path><path d="M1090.96 200.54L1279.21 213.34" stroke="rgba(19, 46, 101, 0.5)" stroke-width="1.5"></path><path d="M1090.96 200.54L964.68 385.42" stroke="rgba(19, 46, 101, 0.5)" stroke-width="1.5"></path><path d="M1091.8 341.42L1091.8 341.42" stroke="rgba(19, 46, 101, 0.5)" stroke-width="1.5"></path><path d="M1091.8 341.42L1142.04 507.6" stroke="rgba(19, 46, 101, 0.5)" stroke-width="1.5"></path><path d="M1091.8 341.42L1282.93 378.61" stroke="rgba(19, 46, 101, 0.5)" stroke-width="1.5"></path><path d="M1142.04 507.6L1142.04 507.6" stroke="rgba(19, 46, 101, 0.5)" stroke-width="1.5"></path><path d="M1142.04 507.6L1284.51 534.43" stroke="rgba(19, 46, 101, 0.5)" stroke-width="1.5"></path><path d="M1142.04 507.6L1282.93 378.61" stroke="rgba(19, 46, 101, 0.5)" stroke-width="1.5"></path><path d="M1142.04 507.6L964.68 385.42" stroke="rgba(19, 46, 101, 0.5)" stroke-width="1.5"></path><path d="M1296.87 61.73L1296.87 61.73" stroke="rgba(19, 46, 101, 0.5)" stroke-width="1.5"></path><path d="M1296.87 61.73L1390.56 -46.48" stroke="rgba(19, 46, 101, 0.5)" stroke-width="1.5"></path><path d="M1296.87 61.73L1279.21 213.34" stroke="rgba(19, 46, 101, 0.5)" stroke-width="1.5"></path><path d="M1296.87 61.73L1435.19 256.4" stroke="rgba(19, 46, 101, 0.5)" stroke-width="1.5"></path><path d="M1279.21 213.34L1279.21 213.34" stroke="rgba(19, 46, 101, 0.5)" stroke-width="1.5"></path><path d="M1279.21 213.34L1435.19 256.4" stroke="rgba(19, 46, 101, 0.5)" stroke-width="1.5"></path><path d="M1279.21 213.34L1282.93 378.61" stroke="rgba(19, 46, 101, 0.5)" stroke-width="1.5"></path><path d="M1279.21 213.34L1160.01 52.7" stroke="rgba(19, 46, 101, 0.5)" stroke-width="1.5"></path><path d="M1282.93 378.61L1282.93 378.61" stroke="rgba(19, 46, 101, 0.5)" stroke-width="1.5"></path><path d="M1282.93 378.61L1284.51 534.43" stroke="rgba(19, 46, 101, 0.5)" stroke-width="1.5"></path><path d="M1284.51 534.43L1284.51 534.43" stroke="rgba(19, 46, 101, 0.5)" stroke-width="1.5"></path><path d="M1284.51 534.43L1308.82 658.55" stroke="rgba(19, 46, 101, 0.5)" stroke-width="1.5"></path><path d="M1308.82 658.55L1308.82 658.55" stroke="rgba(19, 46, 101, 0.5)" stroke-width="1.5"></path><path d="M1308.82 658.55L1412.22 711.07" stroke="rgba(19, 46, 101, 0.5)" stroke-width="1.5"></path><path d="M1308.82 658.55L1142.04 507.6" stroke="rgba(19, 46, 101, 0.5)" stroke-width="1.5"></path><path d="M1308.82 658.55L1544.53 642.3" stroke="rgba(19, 46, 101, 0.5)" stroke-width="1.5"></path><path d="M1308.82 658.55L1539.4 542.85" stroke="rgba(19, 46, 101, 0.5)" stroke-width="1.5"></path><path d="M1390.56 -46.48L1390.56 -46.48" stroke="rgba(19, 46, 101, 0.5)" stroke-width="1.5"></path><path d="M1390.56 -46.48L1566.26 -68.68" stroke="rgba(19, 46, 101, 0.5)" stroke-width="1.5"></path><path d="M1435.19 256.4L1435.19 256.4" stroke="rgba(19, 46, 101, 0.5)" stroke-width="1.5"></path><path d="M1435.19 256.4L1587.26 198.59" stroke="rgba(19, 46, 101, 0.5)" stroke-width="1.5"></path><path d="M1435.19 256.4L1282.93 378.61" stroke="rgba(19, 46, 101, 0.5)" stroke-width="1.5"></path><path d="M1412.22 711.07L1412.22 711.07" stroke="rgba(19, 46, 101, 0.5)" stroke-width="1.5"></path><path d="M1412.22 711.07L1544.53 642.3" stroke="rgba(19, 46, 101, 0.5)" stroke-width="1.5"></path><path d="M1412.22 711.07L1539.4 542.85" stroke="rgba(19, 46, 101, 0.5)" stroke-width="1.5"></path><path d="M1566.26 -68.68L1566.26 -68.68" stroke="rgba(19, 46, 101, 0.5)" stroke-width="1.5"></path><path d="M1566.26 -68.68L1587.26 198.59" stroke="rgba(19, 46, 101, 0.5)" stroke-width="1.5"></path><path d="M1566.26 -68.68L1296.87 61.73" stroke="rgba(19, 46, 101, 0.5)" stroke-width="1.5"></path><path d="M1566.26 -68.68L1435.19 256.4" stroke="rgba(19, 46, 101, 0.5)" stroke-width="1.5"></path><path d="M1566.26 -68.68L1279.21 213.34" stroke="rgba(19, 46, 101, 0.5)" stroke-width="1.5"></path><path d="M1566.26 -68.68L1160.01 52.7" stroke="rgba(19, 46, 101, 0.5)" stroke-width="1.5"></path><path d="M1587.26 198.59L1587.26 198.59" stroke="rgba(19, 46, 101, 0.5)" stroke-width="1.5"></path><path d="M1587.26 198.59L1598.2 396.22" stroke="rgba(19, 46, 101, 0.5)" stroke-width="1.5"></path><path d="M1598.2 396.22L1598.2 396.22" stroke="rgba(19, 46, 101, 0.5)" stroke-width="1.5"></path><path d="M1598.2 396.22L1539.4 542.85" stroke="rgba(19, 46, 101, 0.5)" stroke-width="1.5"></path><path d="M1598.2 396.22L1435.19 256.4" stroke="rgba(19, 46, 101, 0.5)" stroke-width="1.5"></path><path d="M1598.2 396.22L1544.53 642.3" stroke="rgba(19, 46, 101, 0.5)" stroke-width="1.5"></path><path d="M1598.2 396.22L1282.93 378.61" stroke="rgba(19, 46, 101, 0.5)" stroke-width="1.5"></path><path d="M1539.4 542.85L1539.4 542.85" stroke="rgba(19, 46, 101, 0.5)" stroke-width="1.5"></path><path d="M1539.4 542.85L1544.53 642.3" stroke="rgba(19, 46, 101, 0.5)" stroke-width="1.5"></path><path d="M1544.53 642.3L1544.53 642.3" stroke="rgba(19, 46, 101, 0.5)" stroke-width="1.5"></path><circle r="5" cx="-80.4" cy="342.56" fill="rgba(19, 46, 101, 0.5)"></circle><circle r="5" cx="-57.61" cy="512.69" fill="rgba(19, 46, 101, 0.5)"></circle><circle r="5" cx="-92.75" cy="647.98" fill="rgba(19, 46, 101, 0.5)"></circle><circle r="5" cx="60.08" cy="399.68" fill="rgba(19, 46, 101, 0.5)"></circle><circle r="5" cx="73.27" cy="513.84" fill="rgba(19, 46, 101, 0.5)"></circle><circle r="5" cx="51.57" cy="643.56" fill="rgba(19, 46, 101, 0.5)"></circle><circle r="5" cx="236.4" cy="392.13" fill="rgba(19, 46, 101, 0.5)"></circle><circle r="5" cx="235.92" cy="512.32" fill="rgba(19, 46, 101, 0.5)"></circle><circle r="5" cx="242.33" cy="669.04" fill="rgba(19, 46, 101, 0.5)"></circle><circle r="5" cx="363.64" cy="411.87" fill="rgba(19, 46, 101, 0.5)"></circle><circle r="5" cx="351.14" cy="495.62" fill="rgba(19, 46, 101, 0.5)"></circle><circle r="5" cx="412.32" cy="688.45" fill="rgba(19, 46, 101, 0.5)"></circle><circle r="5" cx="492.18" cy="340.1" fill="rgba(19, 46, 101, 0.5)"></circle><circle r="5" cx="501.82" cy="708.99" fill="rgba(19, 46, 101, 0.5)"></circle><circle r="5" cx="685.25" cy="236.44" fill="rgba(19, 46, 101, 0.5)"></circle><circle r="5" cx="653.77" cy="342.96" fill="rgba(19, 46, 101, 0.5)"></circle><circle r="5" cx="650.74" cy="550.57" fill="rgba(19, 46, 101, 0.5)"></circle><circle r="5" cx="699.87" cy="704.58" fill="rgba(19, 46, 101, 0.5)"></circle><circle r="5" cx="797.29" cy="234.32" fill="rgba(19, 46, 101, 0.5)"></circle><circle r="5" cx="860.51" cy="362.04" fill="rgba(19, 46, 101, 0.5)"></circle><circle r="5" cx="804.8" cy="498.77" fill="rgba(19, 46, 101, 0.5)"></circle><circle r="5" cx="1007.51" cy="-48.89" fill="rgba(19, 46, 101, 0.5)"></circle><circle r="5" cx="990.93" cy="43.76" fill="rgba(19, 46, 101, 0.5)"></circle><circle r="5" cx="945.41" cy="235.35" fill="rgba(19, 46, 101, 0.5)"></circle><circle r="5" cx="964.68" cy="385.42" fill="rgba(19, 46, 101, 0.5)"></circle><circle r="5" cx="1000.84" cy="545.78" fill="rgba(19, 46, 101, 0.5)"></circle><circle r="5" cx="974.35" cy="688.07" fill="rgba(19, 46, 101, 0.5)"></circle><circle r="5" cx="1117.64" cy="-83.08" fill="rgba(19, 46, 101, 0.5)"></circle><circle r="5" cx="1160.01" cy="52.7" fill="rgba(19, 46, 101, 0.5)"></circle><circle r="5" cx="1090.96" cy="200.54" fill="rgba(19, 46, 101, 0.5)"></circle><circle r="5" cx="1091.8" cy="341.42" fill="rgba(19, 46, 101, 0.5)"></circle><circle r="5" cx="1142.04" cy="507.6" fill="rgba(19, 46, 101, 0.5)"></circle><circle r="5" cx="1296.87" cy="61.73" fill="rgba(19, 46, 101, 0.5)"></circle><circle r="5" cx="1279.21" cy="213.34" fill="rgba(19, 46, 101, 0.5)"></circle><circle r="5" cx="1282.93" cy="378.61" fill="rgba(19, 46, 101, 0.5)"></circle><circle r="5" cx="1284.51" cy="534.43" fill="rgba(19, 46, 101, 0.5)"></circle><circle r="5" cx="1308.82" cy="658.55" fill="rgba(19, 46, 101, 0.5)"></circle><circle r="5" cx="1390.56" cy="-46.48" fill="rgba(19, 46, 101, 0.5)"></circle><circle r="5" cx="1435.19" cy="256.4" fill="rgba(19, 46, 101, 0.5)"></circle><circle r="5" cx="1412.22" cy="711.07" fill="rgba(19, 46, 101, 0.5)"></circle><circle r="5" cx="1566.26" cy="-68.68" fill="rgba(19, 46, 101, 0.5)"></circle><circle r="5" cx="1587.26" cy="198.59" fill="rgba(19, 46, 101, 0.5)"></circle><circle r="5" cx="1598.2" cy="396.22" fill="rgba(19, 46, 101, 0.5)"></circle><circle r="5" cx="1539.4" cy="542.85" fill="rgba(19, 46, 101, 0.5)"></circle><circle r="5" cx="1544.53" cy="642.3" fill="rgba(19, 46, 101, 0.5)"></circle><path d="M61.79 513.97L61.79 513.97" stroke="hsla(228.5, 77.2%, 51.5%, 0.5)" stroke-width="1.5"></path><path d="M61.79 513.97L-53.46 550.51" stroke="hsla(228.5, 77.2%, 51.5%, 0.5)" stroke-width="1.5"></path><path d="M61.79 513.97L45.56 653.14" stroke="hsla(228.5, 77.2%, 51.5%, 0.5)" stroke-width="1.5"></path><path d="M61.79 513.97L236.96 537.56" stroke="hsla(228.5, 77.2%, 51.5%, 0.5)" stroke-width="1.5"></path><path d="M61.79 513.97L-69.71 688.9" stroke="hsla(228.5, 77.2%, 51.5%, 0.5)" stroke-width="1.5"></path><path d="M696.78 503.31L696.78 503.31" stroke="hsla(228.5, 77.2%, 51.5%, 0.5)" stroke-width="1.5"></path><path d="M696.78 503.31L792.74 489.89" stroke="hsla(228.5, 77.2%, 51.5%, 0.5)" stroke-width="1.5"></path><path d="M696.78 503.31L704.86 380.15" stroke="hsla(228.5, 77.2%, 51.5%, 0.5)" stroke-width="1.5"></path><path d="M696.78 503.31L543.64 545.26" stroke="hsla(228.5, 77.2%, 51.5%, 0.5)" stroke-width="1.5"></path><path d="M970.96 371.56L970.96 371.56" stroke="hsla(228.5, 77.2%, 51.5%, 0.5)" stroke-width="1.5"></path><path d="M970.96 371.56L843 383.64" stroke="hsla(228.5, 77.2%, 51.5%, 0.5)" stroke-width="1.5"></path><path d="M970.96 371.56L1007.48 527.64" stroke="hsla(228.5, 77.2%, 51.5%, 0.5)" stroke-width="1.5"></path><path d="M1007.48 527.64L1007.48 527.64" stroke="hsla(228.5, 77.2%, 51.5%, 0.5)" stroke-width="1.5"></path><path d="M1007.48 527.64L1158.58 552.93" stroke="hsla(228.5, 77.2%, 51.5%, 0.5)" stroke-width="1.5"></path><path d="M1007.48 527.64L951.73 676.76" stroke="hsla(228.5, 77.2%, 51.5%, 0.5)" stroke-width="1.5"></path><path d="M1007.48 527.64L1144.14 390.05" stroke="hsla(228.5, 77.2%, 51.5%, 0.5)" stroke-width="1.5"></path><path d="M1007.48 527.64L1123.2 695.98" stroke="hsla(228.5, 77.2%, 51.5%, 0.5)" stroke-width="1.5"></path><path d="M951.73 676.76L951.73 676.76" stroke="hsla(228.5, 77.2%, 51.5%, 0.5)" stroke-width="1.5"></path><path d="M951.73 676.76L813.12 683.79" stroke="hsla(228.5, 77.2%, 51.5%, 0.5)" stroke-width="1.5"></path><path d="M951.73 676.76L1123.2 695.98" stroke="hsla(228.5, 77.2%, 51.5%, 0.5)" stroke-width="1.5"></path><path d="M951.73 676.76L1158.58 552.93" stroke="hsla(228.5, 77.2%, 51.5%, 0.5)" stroke-width="1.5"></path><path d="M1096.23 225.7L1096.23 225.7" stroke="hsla(228.5, 77.2%, 51.5%, 0.5)" stroke-width="1.5"></path><path d="M1096.23 225.7L1144.14 390.05" stroke="hsla(228.5, 77.2%, 51.5%, 0.5)" stroke-width="1.5"></path><path d="M1096.23 225.7L970.96 371.56" stroke="hsla(228.5, 77.2%, 51.5%, 0.5)" stroke-width="1.5"></path><path d="M1096.23 225.7L1238.44 355.21" stroke="hsla(228.5, 77.2%, 51.5%, 0.5)" stroke-width="1.5"></path><path d="M1096.23 225.7L1292.92 220.8" stroke="hsla(228.5, 77.2%, 51.5%, 0.5)" stroke-width="1.5"></path><path d="M1261.19 550.22L1261.19 550.22" stroke="hsla(228.5, 77.2%, 51.5%, 0.5)" stroke-width="1.5"></path><path d="M1261.19 550.22L1158.58 552.93" stroke="hsla(228.5, 77.2%, 51.5%, 0.5)" stroke-width="1.5"></path><path d="M1261.19 550.22L1247.37 682.2" stroke="hsla(228.5, 77.2%, 51.5%, 0.5)" stroke-width="1.5"></path><path d="M1419.31 646.86L1419.31 646.86" stroke="hsla(228.5, 77.2%, 51.5%, 0.5)" stroke-width="1.5"></path><path d="M1419.31 646.86L1444.97 513.78" stroke="hsla(228.5, 77.2%, 51.5%, 0.5)" stroke-width="1.5"></path><path d="M1419.31 646.86L1247.37 682.2" stroke="hsla(228.5, 77.2%, 51.5%, 0.5)" stroke-width="1.5"></path><path d="M1419.31 646.86L1261.19 550.22" stroke="hsla(228.5, 77.2%, 51.5%, 0.5)" stroke-width="1.5"></path><path d="M1419.31 646.86L1609.75 666.66" stroke="hsla(228.5, 77.2%, 51.5%, 0.5)" stroke-width="1.5"></path><path d="M1419.31 646.86L1590.84 488.79" stroke="hsla(228.5, 77.2%, 51.5%, 0.5)" stroke-width="1.5"></path><path d="M1545.28 337.87L1545.28 337.87" stroke="hsla(228.5, 77.2%, 51.5%, 0.5)" stroke-width="1.5"></path><path d="M1545.28 337.87L1413.62 360.87" stroke="hsla(228.5, 77.2%, 51.5%, 0.5)" stroke-width="1.5"></path><path d="M1545.28 337.87L1441.58 238.51" stroke="hsla(228.5, 77.2%, 51.5%, 0.5)" stroke-width="1.5"></path><path d="M1545.28 337.87L1590.84 488.79" stroke="hsla(228.5, 77.2%, 51.5%, 0.5)" stroke-width="1.5"></path><path d="M-53.46 550.51L-53.46 550.51" stroke="hsla(228.5, 77.2%, 51.5%, 0.5)" stroke-width="1.5"></path><path d="M-53.46 550.51L-69.71 688.9" stroke="hsla(228.5, 77.2%, 51.5%, 0.5)" stroke-width="1.5"></path><path d="M-53.46 550.51L45.56 653.14" stroke="hsla(228.5, 77.2%, 51.5%, 0.5)" stroke-width="1.5"></path><path d="M-53.46 550.51L236.96 537.56" stroke="hsla(228.5, 77.2%, 51.5%, 0.5)" stroke-width="1.5"></path><path d="M-69.71 688.9L-69.71 688.9" stroke="hsla(228.5, 77.2%, 51.5%, 0.5)" stroke-width="1.5"></path><path d="M-69.71 688.9L45.56 653.14" stroke="hsla(228.5, 77.2%, 51.5%, 0.5)" stroke-width="1.5"></path><path d="M-69.71 688.9L227.21 673.02" stroke="hsla(228.5, 77.2%, 51.5%, 0.5)" stroke-width="1.5"></path><path d="M-69.71 688.9L236.96 537.56" stroke="hsla(228.5, 77.2%, 51.5%, 0.5)" stroke-width="1.5"></path><path d="M45.56 653.14L45.56 653.14" stroke="hsla(228.5, 77.2%, 51.5%, 0.5)" stroke-width="1.5"></path><path d="M236.96 537.56L236.96 537.56" stroke="hsla(228.5, 77.2%, 51.5%, 0.5)" stroke-width="1.5"></path><path d="M236.96 537.56L227.21 673.02" stroke="hsla(228.5, 77.2%, 51.5%, 0.5)" stroke-width="1.5"></path><path d="M236.96 537.56L374.27 509.88" stroke="hsla(228.5, 77.2%, 51.5%, 0.5)" stroke-width="1.5"></path><path d="M236.96 537.56L383.95 663.4" stroke="hsla(228.5, 77.2%, 51.5%, 0.5)" stroke-width="1.5"></path><path d="M236.96 537.56L45.56 653.14" stroke="hsla(228.5, 77.2%, 51.5%, 0.5)" stroke-width="1.5"></path><path d="M227.21 673.02L227.21 673.02" stroke="hsla(228.5, 77.2%, 51.5%, 0.5)" stroke-width="1.5"></path><path d="M227.21 673.02L383.95 663.4" stroke="hsla(228.5, 77.2%, 51.5%, 0.5)" stroke-width="1.5"></path><path d="M374.27 509.88L374.27 509.88" stroke="hsla(228.5, 77.2%, 51.5%, 0.5)" stroke-width="1.5"></path><path d="M374.27 509.88L383.95 663.4" stroke="hsla(228.5, 77.2%, 51.5%, 0.5)" stroke-width="1.5"></path><path d="M374.27 509.88L543.64 545.26" stroke="hsla(228.5, 77.2%, 51.5%, 0.5)" stroke-width="1.5"></path><path d="M383.95 663.4L383.95 663.4" stroke="hsla(228.5, 77.2%, 51.5%, 0.5)" stroke-width="1.5"></path><path d="M383.95 663.4L519.42 678.58" stroke="hsla(228.5, 77.2%, 51.5%, 0.5)" stroke-width="1.5"></path><path d="M543.64 545.26L543.64 545.26" stroke="hsla(228.5, 77.2%, 51.5%, 0.5)" stroke-width="1.5"></path><path d="M543.64 545.26L519.42 678.58" stroke="hsla(228.5, 77.2%, 51.5%, 0.5)" stroke-width="1.5"></path><path d="M519.42 678.58L519.42 678.58" stroke="hsla(228.5, 77.2%, 51.5%, 0.5)" stroke-width="1.5"></path><path d="M704.86 380.15L704.86 380.15" stroke="hsla(228.5, 77.2%, 51.5%, 0.5)" stroke-width="1.5"></path><path d="M704.86 380.15L843 383.64" stroke="hsla(228.5, 77.2%, 51.5%, 0.5)" stroke-width="1.5"></path><path d="M704.86 380.15L792.74 489.89" stroke="hsla(228.5, 77.2%, 51.5%, 0.5)" stroke-width="1.5"></path><path d="M704.86 380.15L543.64 545.26" stroke="hsla(228.5, 77.2%, 51.5%, 0.5)" stroke-width="1.5"></path><path d="M704.86 380.15L970.96 371.56" stroke="hsla(228.5, 77.2%, 51.5%, 0.5)" stroke-width="1.5"></path><path d="M843 383.64L843 383.64" stroke="hsla(228.5, 77.2%, 51.5%, 0.5)" stroke-width="1.5"></path><path d="M843 383.64L792.74 489.89" stroke="hsla(228.5, 77.2%, 51.5%, 0.5)" stroke-width="1.5"></path><path d="M792.74 489.89L792.74 489.89" stroke="hsla(228.5, 77.2%, 51.5%, 0.5)" stroke-width="1.5"></path><path d="M792.74 489.89L813.12 683.79" stroke="hsla(228.5, 77.2%, 51.5%, 0.5)" stroke-width="1.5"></path><path d="M792.74 489.89L970.96 371.56" stroke="hsla(228.5, 77.2%, 51.5%, 0.5)" stroke-width="1.5"></path><path d="M813.12 683.79L813.12 683.79" stroke="hsla(228.5, 77.2%, 51.5%, 0.5)" stroke-width="1.5"></path><path d="M813.12 683.79L696.78 503.31" stroke="hsla(228.5, 77.2%, 51.5%, 0.5)" stroke-width="1.5"></path><path d="M813.12 683.79L1007.48 527.64" stroke="hsla(228.5, 77.2%, 51.5%, 0.5)" stroke-width="1.5"></path><path d="M813.12 683.79L519.42 678.58" stroke="hsla(228.5, 77.2%, 51.5%, 0.5)" stroke-width="1.5"></path><path d="M813.12 683.79L843 383.64" stroke="hsla(228.5, 77.2%, 51.5%, 0.5)" stroke-width="1.5"></path><path d="M1144.14 390.05L1144.14 390.05" stroke="hsla(228.5, 77.2%, 51.5%, 0.5)" stroke-width="1.5"></path><path d="M1144.14 390.05L1238.44 355.21" stroke="hsla(228.5, 77.2%, 51.5%, 0.5)" stroke-width="1.5"></path><path d="M1144.14 390.05L1158.58 552.93" stroke="hsla(228.5, 77.2%, 51.5%, 0.5)" stroke-width="1.5"></path><path d="M1158.58 552.93L1158.58 552.93" stroke="hsla(228.5, 77.2%, 51.5%, 0.5)" stroke-width="1.5"></path><path d="M1158.58 552.93L1123.2 695.98" stroke="hsla(228.5, 77.2%, 51.5%, 0.5)" stroke-width="1.5"></path><path d="M1158.58 552.93L1247.37 682.2" stroke="hsla(228.5, 77.2%, 51.5%, 0.5)" stroke-width="1.5"></path><path d="M1158.58 552.93L1238.44 355.21" stroke="hsla(228.5, 77.2%, 51.5%, 0.5)" stroke-width="1.5"></path><path d="M1123.2 695.98L1123.2 695.98" stroke="hsla(228.5, 77.2%, 51.5%, 0.5)" stroke-width="1.5"></path><path d="M1123.2 695.98L1247.37 682.2" stroke="hsla(228.5, 77.2%, 51.5%, 0.5)" stroke-width="1.5"></path><path d="M1256.84 -100.92L1256.84 -100.92" stroke="hsla(228.5, 77.2%, 51.5%, 0.5)" stroke-width="1.5"></path><path d="M1256.84 -100.92L1448.35 -104.47" stroke="hsla(228.5, 77.2%, 51.5%, 0.5)" stroke-width="1.5"></path><path d="M1256.84 -100.92L1280.98 93.8" stroke="hsla(228.5, 77.2%, 51.5%, 0.5)" stroke-width="1.5"></path><path d="M1256.84 -100.92L1447.75 48.4" stroke="hsla(228.5, 77.2%, 51.5%, 0.5)" stroke-width="1.5"></path><path d="M1280.98 93.8L1280.98 93.8" stroke="hsla(228.5, 77.2%, 51.5%, 0.5)" stroke-width="1.5"></path><path d="M1280.98 93.8L1292.92 220.8" stroke="hsla(228.5, 77.2%, 51.5%, 0.5)" stroke-width="1.5"></path><path d="M1280.98 93.8L1447.75 48.4" stroke="hsla(228.5, 77.2%, 51.5%, 0.5)" stroke-width="1.5"></path><path d="M1292.92 220.8L1292.92 220.8" stroke="hsla(228.5, 77.2%, 51.5%, 0.5)" stroke-width="1.5"></path><path d="M1292.92 220.8L1238.44 355.21" stroke="hsla(228.5, 77.2%, 51.5%, 0.5)" stroke-width="1.5"></path><path d="M1292.92 220.8L1441.58 238.51" stroke="hsla(228.5, 77.2%, 51.5%, 0.5)" stroke-width="1.5"></path><path d="M1292.92 220.8L1413.62 360.87" stroke="hsla(228.5, 77.2%, 51.5%, 0.5)" stroke-width="1.5"></path><path d="M1292.92 220.8L1144.14 390.05" stroke="hsla(228.5, 77.2%, 51.5%, 0.5)" stroke-width="1.5"></path><path d="M1238.44 355.21L1238.44 355.21" stroke="hsla(228.5, 77.2%, 51.5%, 0.5)" stroke-width="1.5"></path><path d="M1238.44 355.21L1413.62 360.87" stroke="hsla(228.5, 77.2%, 51.5%, 0.5)" stroke-width="1.5"></path><path d="M1247.37 682.2L1247.37 682.2" stroke="hsla(228.5, 77.2%, 51.5%, 0.5)" stroke-width="1.5"></path><path d="M1448.35 -104.47L1448.35 -104.47" stroke="hsla(228.5, 77.2%, 51.5%, 0.5)" stroke-width="1.5"></path><path d="M1448.35 -104.47L1600.91 -110.36" stroke="hsla(228.5, 77.2%, 51.5%, 0.5)" stroke-width="1.5"></path><path d="M1448.35 -104.47L1447.75 48.4" stroke="hsla(228.5, 77.2%, 51.5%, 0.5)" stroke-width="1.5"></path><path d="M1448.35 -104.47L1540.44 49.45" stroke="hsla(228.5, 77.2%, 51.5%, 0.5)" stroke-width="1.5"></path><path d="M1447.75 48.4L1447.75 48.4" stroke="hsla(228.5, 77.2%, 51.5%, 0.5)" stroke-width="1.5"></path><path d="M1447.75 48.4L1540.44 49.45" stroke="hsla(228.5, 77.2%, 51.5%, 0.5)" stroke-width="1.5"></path><path d="M1447.75 48.4L1441.58 238.51" stroke="hsla(228.5, 77.2%, 51.5%, 0.5)" stroke-width="1.5"></path><path d="M1447.75 48.4L1600.91 -110.36" stroke="hsla(228.5, 77.2%, 51.5%, 0.5)" stroke-width="1.5"></path><path d="M1441.58 238.51L1441.58 238.51" stroke="hsla(228.5, 77.2%, 51.5%, 0.5)" stroke-width="1.5"></path><path d="M1441.58 238.51L1413.62 360.87" stroke="hsla(228.5, 77.2%, 51.5%, 0.5)" stroke-width="1.5"></path><path d="M1413.62 360.87L1413.62 360.87" stroke="hsla(228.5, 77.2%, 51.5%, 0.5)" stroke-width="1.5"></path><path d="M1444.97 513.78L1444.97 513.78" stroke="hsla(228.5, 77.2%, 51.5%, 0.5)" stroke-width="1.5"></path><path d="M1444.97 513.78L1590.84 488.79" stroke="hsla(228.5, 77.2%, 51.5%, 0.5)" stroke-width="1.5"></path><path d="M1444.97 513.78L1413.62 360.87" stroke="hsla(228.5, 77.2%, 51.5%, 0.5)" stroke-width="1.5"></path><path d="M1444.97 513.78L1261.19 550.22" stroke="hsla(228.5, 77.2%, 51.5%, 0.5)" stroke-width="1.5"></path><path d="M1444.97 513.78L1545.28 337.87" stroke="hsla(228.5, 77.2%, 51.5%, 0.5)" stroke-width="1.5"></path><path d="M1600.91 -110.36L1600.91 -110.36" stroke="hsla(228.5, 77.2%, 51.5%, 0.5)" stroke-width="1.5"></path><path d="M1600.91 -110.36L1540.44 49.45" stroke="hsla(228.5, 77.2%, 51.5%, 0.5)" stroke-width="1.5"></path><path d="M1540.44 49.45L1540.44 49.45" stroke="hsla(228.5, 77.2%, 51.5%, 0.5)" stroke-width="1.5"></path><path d="M1590.84 488.79L1590.84 488.79" stroke="hsla(228.5, 77.2%, 51.5%, 0.5)" stroke-width="1.5"></path><path d="M1609.75 666.66L1609.75 666.66" stroke="hsla(228.5, 77.2%, 51.5%, 0.5)" stroke-width="1.5"></path><path d="M1609.75 666.66L1590.84 488.79" stroke="hsla(228.5, 77.2%, 51.5%, 0.5)" stroke-width="1.5"></path><path d="M1609.75 666.66L1444.97 513.78" stroke="hsla(228.5, 77.2%, 51.5%, 0.5)" stroke-width="1.5"></path><circle r="25" cx="61.79" cy="513.97" fill="url(&quot;#SvgjsRadialGradient1007&quot;)"></circle><circle r="25" cx="696.78" cy="503.31" fill="url(&quot;#SvgjsRadialGradient1007&quot;)"></circle><circle r="25" cx="970.96" cy="371.56" fill="url(&quot;#SvgjsRadialGradient1007&quot;)"></circle><circle r="25" cx="1007.48" cy="527.64" fill="url(&quot;#SvgjsRadialGradient1007&quot;)"></circle><circle r="25" cx="951.73" cy="676.76" fill="url(&quot;#SvgjsRadialGradient1007&quot;)"></circle><circle r="25" cx="1096.23" cy="225.7" fill="url(&quot;#SvgjsRadialGradient1007&quot;)"></circle><circle r="25" cx="1261.19" cy="550.22" fill="url(&quot;#SvgjsRadialGradient1007&quot;)"></circle><circle r="25" cx="1419.31" cy="646.86" fill="url(&quot;#SvgjsRadialGradient1007&quot;)"></circle><circle r="25" cx="1545.28" cy="337.87" fill="url(&quot;#SvgjsRadialGradient1007&quot;)"></circle><circle r="5" cx="-53.46" cy="550.51" fill="rgba(197, 205, 236, 0.75)"></circle><circle r="5" cx="-69.71" cy="688.9" fill="rgba(197, 205, 236, 0.75)"></circle><circle r="5" cx="45.56" cy="653.14" fill="rgba(197, 205, 236, 0.75)"></circle><circle r="5" cx="236.96" cy="537.56" fill="rgba(197, 205, 236, 0.75)"></circle><circle r="5" cx="227.21" cy="673.02" fill="rgba(197, 205, 236, 0.75)"></circle><circle r="5" cx="374.27" cy="509.88" fill="rgba(197, 205, 236, 0.75)"></circle><circle r="5" cx="383.95" cy="663.4" fill="rgba(197, 205, 236, 0.75)"></circle><circle r="5" cx="543.64" cy="545.26" fill="rgba(197, 205, 236, 0.75)"></circle><circle r="5" cx="519.42" cy="678.58" fill="rgba(197, 205, 236, 0.75)"></circle><circle r="5" cx="704.86" cy="380.15" fill="rgba(197, 205, 236, 0.75)"></circle><circle r="5" cx="843" cy="383.64" fill="rgba(197, 205, 236, 0.75)"></circle><circle r="5" cx="792.74" cy="489.89" fill="rgba(197, 205, 236, 0.75)"></circle><circle r="5" cx="813.12" cy="683.79" fill="rgba(197, 205, 236, 0.75)"></circle><circle r="5" cx="1144.14" cy="390.05" fill="rgba(197, 205, 236, 0.75)"></circle><circle r="5" cx="1158.58" cy="552.93" fill="rgba(197, 205, 236, 0.75)"></circle><circle r="5" cx="1123.2" cy="695.98" fill="rgba(197, 205, 236, 0.75)"></circle><circle r="5" cx="1256.84" cy="-100.92" fill="rgba(197, 205, 236, 0.75)"></circle><circle r="5" cx="1280.98" cy="93.8" fill="rgba(197, 205, 236, 0.75)"></circle><circle r="5" cx="1292.92" cy="220.8" fill="rgba(197, 205, 236, 0.75)"></circle><circle r="5" cx="1238.44" cy="355.21" fill="rgba(197, 205, 236, 0.75)"></circle><circle r="5" cx="1247.37" cy="682.2" fill="rgba(197, 205, 236, 0.75)"></circle><circle r="5" cx="1448.35" cy="-104.47" fill="rgba(197, 205, 236, 0.75)"></circle><circle r="5" cx="1447.75" cy="48.4" fill="rgba(197, 205, 236, 0.75)"></circle><circle r="5" cx="1441.58" cy="238.51" fill="rgba(197, 205, 236, 0.75)"></circle><circle r="5" cx="1413.62" cy="360.87" fill="rgba(197, 205, 236, 0.75)"></circle><circle r="5" cx="1444.97" cy="513.78" fill="rgba(197, 205, 236, 0.75)"></circle><circle r="5" cx="1600.91" cy="-110.36" fill="rgba(197, 205, 236, 0.75)"></circle><circle r="5" cx="1540.44" cy="49.45" fill="rgba(197, 205, 236, 0.75)"></circle><circle r="5" cx="1590.84" cy="488.79" fill="rgba(197, 205, 236, 0.75)"></circle><circle r="5" cx="1609.75" cy="666.66" fill="rgba(197, 205, 236, 0.75)"></circle></g><defs><mask id="SvgjsMask1006"><rect width="1440" height="560" fill="#ffffff"></rect></mask><radialGradient id="SvgjsRadialGradient1007"><stop stop-color="#ffffff" offset="0.1"></stop><stop stop-color="rgba(23, 53, 179, 0.5)" offset="0.2"></stop><stop stop-color="rgba(23, 53, 179, 0)" offset="1"></stop></radialGradient></defs></svg>